<?xml version="1.0" standalone="no"?>
<!DOCTYPE svg PUBLIC "-//W3C//DTD SVG 20010904//EN"
 "http://www.w3.org/TR/2001/REC-SVG-20010904/DTD/svg10.dtd">
<svg version="1.0" xmlns="http://www.w3.org/2000/svg"
 width="96.000000pt" height="96.000000pt" viewBox="0 0 96.000000 96.000000"
 preserveAspectRatio="xMidYMid meet">

<g transform="translate(0.000000,96.000000) scale(0.100000,-0.100000)"
fill="#000000" stroke="none">
<path d="M480 843 c0 -40 0 -40 45 -46 100 -14 185 -75 236 -169 31 -58 34
-70 34 -148 0 -78 -3 -90 -34 -148 -38 -70 -70 -100 -145 -140 -43 -22 -64
-26 -136 -26 -78 -1 -90 2 -148 33 -94 51 -155 136 -169 236 -6 45 -6 45 -46
45 l-40 0 7 -52 c9 -75 66 -187 122 -237 25 -24 75 -57 112 -74 61 -29 76 -32
162 -32 86 0 101 3 162 32 93 44 151 100 196 191 35 72 37 81 37 172 0 91 -2
100 -37 172 -24 47 -55 91 -84 117 -55 52 -151 98 -221 107 l-53 7 0 -40z"/>
</g>
</svg>
